<?xml version="1.0" standalone="no"?>
<!DOCTYPE svg PUBLIC "-//W3C//DTD SVG 20010904//EN"
 "http://www.w3.org/TR/2001/REC-SVG-20010904/DTD/svg10.dtd">
<svg version="1.0" xmlns="http://www.w3.org/2000/svg"
 width="512.000000pt" height="512.000000pt" viewBox="0 0 512.000000 512.000000"
 preserveAspectRatio="xMidYMid meet">
<metadata>
Created by potrace 1.14, written by Peter Selinger 2001-2017
</metadata>
<g transform="translate(0.000000,512.000000) scale(0.100000,-0.100000)"
fill="#000000" stroke="none">
<path d="M2445 4789 c-204 -12 -389 -60 -560 -144 -106 -53 -162 -96 -181
-141 -11 -25 -14 -92 -14 -273 l0 -240 -722 -3 c-717 -3 -723 -3 -770 -25 -66
-30 -133 -96 -165 -162 l-28 -56 0 -620 c0 -614 0 -620 22 -667 11 -25 39 -66
62 -91 l40 -44 3 -874 c3 -821 4 -877 21 -921 26 -67 97 -141 165 -175 l57
-28 2185 0 2185 0 57 28 c68 34 139 108 165 175 17 44 18 100 21 921 l3 874
40 44 c23 25 51 66 62 91 22 47 22 53 22 667 l0 620 -28 56 c-32 66 -99 132
-165 162 -47 22 -53 22 -769 25 l-723 3 0 240 c0 264 -4 285 -59 332 -79 66
-249 142 -410 182 -164 41 -325 55 -516 44z m236 -329 c126 -13 249 -42 347
-82 l72 -30 0 -179 0 -179 -540 0 -540 0 0 179 0 179 48 20 c115 49 224 77
358 91 114 12 140 12 255 1z m146 -2425 l35 -35 -4 -242 c-3 -241 -3 -243 -30
-294 -28 -53 -85 -111 -140 -141 -47 -26 -209 -26 -256 0 -55 30 -112 88 -140
141 -27 51 -27 53 -30 294 l-4 242 35 35 35 35 232 0 232 0 35 -35z"/>
</g>
</svg>
